# 3ds Max Wavefront OBJ Exporter v0.97b - (c)2007 guruware
# File Created: 16.10.2014 14:59:02

mtllib bench.mtl

#
# object Box002
#

v  -1.2153 0.5577 0.4269
v  1.2007 0.5577 0.4269
v  1.2007 0.5577 0.2041
v  -1.2153 0.5577 0.2041
v  -1.2153 0.5109 0.4269
v  -1.2153 0.5109 0.2041
v  1.2007 0.5109 0.2041
v  1.2007 0.5109 0.4269
v  -1.2153 0.5577 0.1357
v  1.2007 0.5577 0.1357
v  1.2007 0.5577 -0.0871
v  -1.2153 0.5577 -0.0871
v  -1.2153 0.5109 0.1357
v  -1.2153 0.5109 -0.0871
v  1.2007 0.5109 -0.0871
v  1.2007 0.5109 0.1357
v  -1.2153 0.6045 -0.1301
v  1.2007 0.6045 -0.1301
v  1.2007 0.8223 -0.1774
v  -1.2153 0.8223 -0.1774
v  -1.2153 0.5946 -0.1759
v  -1.2153 0.8123 -0.2232
v  1.2007 0.8123 -0.2232
v  1.2007 0.5946 -0.1759
v  -1.2153 0.8891 -0.1920
v  1.2007 0.8891 -0.1920
v  1.2007 1.1069 -0.2393
v  -1.2153 1.1069 -0.2393
v  -1.2153 0.8792 -0.2377
v  -1.2153 1.0969 -0.2850
v  1.2007 1.0969 -0.2850
v  1.2007 0.8792 -0.2377
# 32 vertices

vn 0.0000 1.0000 -0.0000
vn 0.0000 -1.0000 -0.0000
vn 0.0000 0.0000 1.0000
vn 1.0000 0.0000 -0.0000
vn 0.0000 0.0000 -1.0000
vn -1.0000 0.0000 -0.0000
vn 0.0000 0.2018 0.9794
vn 0.0000 -0.2018 -0.9794
vn 0.0000 -0.9747 0.2234
vn 0.0000 0.9747 -0.2234
# 10 vertex normals

vt 0.0824 0.5455 0.0000
vt 0.0274 0.5455 0.0000
vt 0.0274 0.6005 0.0000
vt 0.0824 0.6005 0.0000
# 4 texture coords

g Box002
usemtl Material__27
f 1/1/1 2/2/1 3/3/1 4/4/1 
f 5/2/2 6/3/2 7/4/2 8/1/2 
f 1/2/3 5/3/3 8/4/3 2/1/3 
f 2/2/4 8/3/4 7/4/4 3/1/4 
f 3/2/5 7/3/5 6/4/5 4/1/5 
f 4/2/6 6/3/6 5/4/6 1/1/6 
f 9/1/1 10/2/1 11/3/1 12/4/1 
f 13/2/2 14/3/2 15/4/2 16/1/2 
f 9/2/3 13/3/3 16/4/3 10/1/3 
f 10/2/4 16/3/4 15/4/4 11/1/4 
f 11/2/5 15/3/5 14/4/5 12/1/5 
f 12/2/6 14/3/6 13/4/6 9/1/6 
f 17/1/7 18/2/7 19/3/7 20/4/7 
f 21/2/8 22/3/8 23/4/8 24/1/8 
f 17/2/9 21/3/9 24/4/9 18/1/9 
f 18/2/4 24/3/4 23/4/4 19/1/4 
f 19/2/10 23/3/10 22/4/10 20/1/10 
f 20/2/6 22/3/6 21/4/6 17/1/6 
f 25/1/7 26/2/7 27/3/7 28/4/7 
f 29/2/8 30/3/8 31/4/8 32/1/8 
f 25/2/9 29/3/9 32/4/9 26/1/9 
f 26/2/4 32/3/4 31/4/4 27/1/4 
f 27/2/10 31/3/10 30/4/10 28/1/10 
f 28/2/6 30/3/6 29/4/6 25/1/6 
# 24 polygons

#
# object Box006
#

v  0.8292 -0.0452 0.4168
v  0.8292 0.5087 0.2921
v  0.9343 0.5087 0.2921
v  0.9343 -0.0452 0.4168
v  0.8292 -0.0361 0.4576
v  0.9343 -0.0361 0.4576
v  0.9343 0.5179 0.3329
v  0.8292 0.5179 0.3329
v  0.8292 0.4892 0.3343
v  0.8292 0.4892 -0.1839
v  0.9343 0.4892 -0.1839
v  0.9343 0.4892 0.3343
v  0.8292 0.5310 0.3343
v  0.9343 0.5310 0.3343
v  0.9343 0.5310 -0.1839
v  0.8292 0.5310 -0.1839
v  0.9343 -0.0452 -0.2626
v  0.9343 0.5087 -0.1379
v  0.8292 0.5087 -0.1379
v  0.8292 -0.0452 -0.2626
v  0.9343 -0.0361 -0.3034
v  0.8292 -0.0361 -0.3034
v  0.8292 0.5179 -0.1787
v  0.9343 0.5179 -0.1787
v  0.8292 0.5161 -0.1871
v  0.8292 1.0701 -0.3118
v  0.9343 1.0701 -0.3118
v  0.9343 0.5161 -0.1871
v  0.8292 0.5253 -0.1463
v  0.9343 0.5253 -0.1463
v  0.9343 1.0793 -0.2710
v  0.8292 1.0793 -0.2710
v  -0.9553 -0.0452 0.4168
v  -0.9553 0.5087 0.2921
v  -0.8502 0.5087 0.2921
v  -0.8502 -0.0452 0.4168
v  -0.9553 -0.0361 0.4576
v  -0.8502 -0.0361 0.4576
v  -0.8502 0.5179 0.3329
v  -0.9553 0.5179 0.3329
v  -0.9553 0.4892 0.3343
v  -0.9553 0.4892 -0.1839
v  -0.8502 0.4892 -0.1839
v  -0.8502 0.4892 0.3343
v  -0.9553 0.5310 0.3343
v  -0.8502 0.5310 0.3343
v  -0.8502 0.5310 -0.1839
v  -0.9553 0.5310 -0.1839
v  -0.8502 -0.0452 -0.2626
v  -0.8502 0.5087 -0.1379
v  -0.9553 0.5087 -0.1379
v  -0.9553 -0.0452 -0.2626
v  -0.8502 -0.0361 -0.3034
v  -0.9553 -0.0361 -0.3034
v  -0.9553 0.5179 -0.1787
v  -0.8502 0.5179 -0.1787
v  -0.9553 0.5161 -0.1871
v  -0.9553 1.0701 -0.3118
v  -0.8502 1.0701 -0.3118
v  -0.8502 0.5161 -0.1871
v  -0.9553 0.5253 -0.1463
v  -0.8502 0.5253 -0.1463
v  -0.8502 1.0793 -0.2710
v  -0.9553 1.0793 -0.2710
# 64 vertices

vn 0.0000 -0.2195 -0.9756
vn 0.0000 0.2195 0.9756
vn 0.0000 -0.9756 0.2195
vn 1.0000 0.0000 -0.0000
vn 0.0000 0.9756 -0.2195
vn -1.0000 0.0000 -0.0000
vn 0.0000 -0.9999 0.0101
vn 0.0000 0.9999 -0.0101
vn 0.0000 -0.0106 0.9999
vn 0.0000 0.0106 -0.9999
vn -0.0000 -0.2380 0.9713
vn 0.0000 0.2380 -0.9713
vn 0.0000 -0.9795 -0.2015
vn -0.0000 -0.9795 -0.2015
vn 0.0000 0.9795 0.2015
vn -0.0000 0.9795 0.2015
vn 1.0000 -0.0000 0.0000
vn -1.0000 -0.0000 -0.0000
# 18 vertex normals

vt 0.7898 0.0919 0.0000
vt 0.7898 0.1569 0.0000
vt 0.7248 0.1569 0.0000
vt 0.7248 0.0919 0.0000
vt 0.7450 0.1260 0.0000
vt 0.7533 0.1260 0.0000
vt 0.7533 0.1342 0.0000
vt 0.7450 0.1342 0.0000
# 8 texture coords

g Box006
usemtl Material__27
f 33/5/11 34/6/11 35/7/11 36/8/11 
f 37/9/12 38/10/12 39/11/12 40/12/12 
f 33/8/13 36/5/13 38/6/13 37/7/13 
f 36/8/14 35/5/14 39/6/14 38/7/14 
f 35/9/15 34/10/15 40/11/15 39/12/15 
f 34/9/16 33/10/16 37/11/16 40/12/16 
f 41/5/17 42/6/17 43/7/17 44/8/17 
f 45/9/18 46/10/18 47/11/18 48/12/18 
f 41/9/19 44/10/19 46/11/19 45/12/19 
f 44/8/14 43/5/14 47/6/14 46/7/14 
f 43/8/20 42/5/20 48/6/20 47/7/20 
f 42/9/16 41/10/16 45/11/16 48/12/16 
f 49/10/21 50/11/21 51/12/21 52/9/21 
f 53/8/22 54/5/22 55/6/22 56/7/22 
f 49/8/23 52/5/24 54/6/23 53/7/23 
f 52/9/16 51/10/16 55/11/16 54/12/16 
f 51/9/25 50/10/25 56/11/25 55/12/26 
f 50/8/27 49/5/27 53/6/27 56/7/27 
f 57/5/11 58/6/11 59/7/11 60/8/11 
f 61/9/12 62/10/12 63/11/12 64/12/12 
f 57/8/13 60/5/13 62/6/13 61/7/13 
f 60/8/14 59/5/14 63/6/14 62/7/14 
f 59/9/15 58/10/15 64/11/15 63/12/15 
f 58/9/16 57/10/16 61/11/16 64/12/16 
f 65/5/11 66/6/11 67/7/11 68/8/11 
f 69/9/12 70/10/12 71/11/12 72/12/12 
f 65/8/13 68/5/13 70/6/13 69/7/13 
f 68/9/14 67/10/14 71/11/14 70/12/14 
f 67/9/15 66/10/15 72/11/15 71/12/15 
f 66/9/16 65/10/16 69/11/16 72/12/16 
f 73/5/17 74/6/17 75/7/17 76/8/17 
f 77/9/18 78/10/18 79/11/18 80/12/18 
f 73/9/19 76/10/19 78/11/19 77/12/19 
f 76/8/14 75/5/14 79/6/14 78/7/14 
f 75/8/20 74/5/20 80/6/20 79/7/20 
f 74/9/16 73/10/16 77/11/16 80/12/16 
f 81/10/21 82/11/21 83/12/21 84/9/21 
f 85/8/22 86/5/22 87/6/22 88/7/22 
f 81/8/23 84/5/24 86/6/23 85/7/23 
f 84/9/28 83/10/28 87/11/28 86/12/28 
f 83/9/25 82/10/25 88/11/25 87/12/26 
f 82/8/27 81/5/27 85/6/27 88/7/27 
f 89/5/11 90/6/11 91/7/11 92/8/11 
f 93/9/12 94/10/12 95/11/12 96/12/12 
f 89/8/13 92/5/13 94/6/13 93/7/13 
f 92/9/14 91/10/14 95/11/14 94/12/14 
f 91/9/15 90/10/15 96/11/15 95/12/15 
f 90/9/16 89/10/16 93/11/16 96/12/16 
# 48 polygons

