# 3ds Max Wavefront OBJ Exporter v0.97b - (c)2007 guruware
# File Created: 16.10.2014 18:09:33

mtllib mailbox.mtl

#
# object Box002
#

v  -0.0500 0.0000 0.0500
v  -0.0500 0.0000 -0.0500
v  0.0500 0.0000 -0.0500
v  0.0500 0.0000 0.0500
v  -0.0500 1.6996 0.0500
v  0.0500 1.6996 0.0500
v  0.0500 1.6996 -0.0500
v  -0.0500 1.6996 -0.0500
# 8 vertices

vn 0.0000 -1.0000 -0.0000
vn 0.0000 1.0000 -0.0000
vn 0.0000 0.0000 1.0000
vn 1.0000 0.0000 -0.0000
vn 0.0000 0.0000 -1.0000
vn -1.0000 0.0000 -0.0000
# 6 vertex normals

vt 0.8088 0.0501 0.0000
vt 0.8088 0.1506 0.0000
vt 0.7083 0.1506 0.0000
vt 0.7083 0.0501 0.0000
# 4 texture coords

g Box002
usemtl Material__26
f 1/1/1 2/2/1 3/3/1 4/4/1 
f 5/4/2 6/1/2 7/2/2 8/3/2 
f 1/4/3 4/1/3 6/2/3 5/3/3 
f 4/4/4 3/1/4 7/2/4 6/3/4 
f 3/4/5 2/1/5 8/2/5 7/3/5 
f 2/4/6 1/1/6 5/2/6 8/3/6 
# 6 polygons

#
# object Box003
#

v  -0.2034 1.3572 -0.4183
v  0.2765 1.3572 -0.4183
v  0.2765 1.3572 0.6459
v  -0.2034 1.3572 0.6459
v  -0.0598 1.9081 -0.4183
v  -0.0598 1.9081 0.6459
v  0.1329 1.9081 0.6459
v  0.1329 1.9081 -0.4183
v  -0.2034 1.6098 0.6459
v  -0.2034 1.6098 -0.4183
v  0.2765 1.6098 0.6459
v  0.2569 1.7085 0.6459
v  0.1804 1.8672 0.6459
v  -0.1073 1.8672 0.6459
v  -0.1837 1.7085 0.6459
v  0.2765 1.6098 -0.4183
v  -0.1837 1.7085 -0.4183
v  -0.1073 1.8672 -0.4183
v  0.1804 1.8672 -0.4183
v  0.2569 1.7085 -0.4183
# 20 vertices

vn 0.0000 -1.0000 -0.0000
vn -0.2224 0.9750 0.0000
vn 0.2224 0.9750 0.0000
vn 0.2224 0.9750 -0.0000
vn -1.0000 -0.0000 0.0000
vn -1.0000 0.0000 -0.0000
vn -0.9854 0.1704 -0.0000
vn -0.9854 0.1704 0.0000
vn 0.0000 0.0000 1.0000
vn 1.0000 -0.0000 -0.0000
vn 1.0000 0.0000 0.0000
vn 0.9854 0.1704 0.0000
vn 0.9854 0.1704 -0.0000
vn -0.0000 0.0000 -1.0000
vn -0.6086 0.7935 0.0000
vn -0.8645 0.5026 0.0000
vn 0.6086 0.7935 -0.0000
vn 0.8645 0.5026 -0.0000
# 18 vertex normals

vt 0.1268 0.2462 0.0000
vt 0.1268 0.3406 0.0000
vt 0.0324 0.3406 0.0000
vt 0.0324 0.2462 0.0000
vt 0.0324 0.2744 0.0000
vt 0.1268 0.2744 0.0000
vt 0.1268 0.3124 0.0000
vt 0.0324 0.3124 0.0000
vt 0.1268 0.3035 0.0000
vt 0.0324 0.3035 0.0000
vt 0.1229 0.3158 0.0000
vt 0.0985 0.3406 0.0000
vt 0.1079 0.3355 0.0000
vt 0.0606 0.3406 0.0000
vt 0.0513 0.3355 0.0000
vt 0.0362 0.3158 0.0000
vt 0.0324 0.3374 0.0000
vt 0.0324 0.3161 0.0000
vt 0.1268 0.3161 0.0000
vt 0.1268 0.3374 0.0000
vt 0.0324 0.3466 0.0000
vt 0.1268 0.3466 0.0000
# 22 texture coords

g Box003
usemtl Material__26
f 9/5/7 10/6/7 11/7/7 12/8/7 
f 13/9/8 14/10/8 15/11/9 16/12/10 
f 9/8/11 12/5/12 17/13/13 18/14/14 
f 11/5/15 19/13/15 20/15/15 15/16/15 
f 20/15/15 21/17/15 15/16/15 
f 12/8/15 11/5/15 15/16/15 17/14/15 
f 15/16/15 14/18/15 22/19/15 17/14/15 
f 22/19/15 23/20/15 17/14/15 
f 11/8/16 10/5/17 24/13/18 19/14/19 
f 9/5/20 18/13/20 25/15/20 13/16/20 
f 25/15/20 26/17/20 13/16/20 
f 10/8/20 9/5/20 13/16/20 24/14/20 
f 13/16/20 16/18/20 27/19/20 24/14/20 
f 27/19/20 28/20/20 24/14/20 
f 26/21/21 25/22/22 23/23/22 22/24/21 
f 21/21/23 20/22/24 28/23/24 27/24/23 
f 13/25/8 26/21/21 22/24/21 14/26/8 
f 15/25/9 21/21/23 27/24/23 16/26/10 
f 25/22/22 18/14/14 17/13/13 23/23/22 
f 20/22/24 19/14/19 24/13/18 28/23/24 
# 16 polygons - 4 triangles

#
# object Box004
#

v  0.2688 1.5267 0.4893
v  0.2688 1.5267 0.4190
v  0.2890 1.5267 0.4190
v  0.2890 1.5267 0.4893
v  0.2688 2.2174 0.4893
v  0.2890 2.2174 0.4893
v  0.2890 2.2174 0.4190
v  0.2688 2.2174 0.4190
v  0.2890 2.0662 0.4893
v  0.2688 2.0662 0.4893
v  0.2890 2.0662 0.4190
v  0.2688 2.0662 0.4190
v  0.2890 2.1357 0.4893
v  0.2688 2.1357 0.4893
v  0.2890 2.1357 0.3318
v  0.2688 2.1357 0.3318
# 16 vertices

vn 0.0000 -1.0000 -0.0000
vn 0.0000 1.0000 -0.0000
vn 0.0000 0.0000 1.0000
vn 0.0000 -0.0000 1.0000
vn -0.0000 -0.0000 1.0000
vn 1.0000 0.0000 -0.0000
vn 1.0000 -0.0000 -0.0000
vn 0.0000 0.0000 -1.0000
vn 0.0000 -0.3086 -0.9512
vn -1.0000 0.0000 -0.0000
vn -1.0000 -0.0000 0.0000
vn -0.0000 0.0000 1.0000
vn 0.0000 -0.0374 -0.9993
vn 0.0000 0.5249 -0.8511
vn -1.0000 0.0000 0.0000
# 15 vertex normals

vt 0.6210 0.2660 0.0000
vt 0.6210 0.3724 0.0000
vt 0.5146 0.3724 0.0000
vt 0.5146 0.2660 0.0000
vt 0.6210 0.3491 0.0000
vt 0.5146 0.3491 0.0000
vt 0.6210 0.3598 0.0000
vt 0.5146 0.3598 0.0000
# 8 texture coords

g Box004
usemtl Material__26
f 29/27/25 30/28/25 31/29/25 32/30/25 
f 33/30/26 34/27/26 35/28/26 36/29/26 
f 32/27/27 37/31/28 38/32/29 29/30/27 
f 31/27/30 39/31/31 37/32/31 32/30/30 
f 30/27/32 40/31/33 39/32/33 31/30/32 
f 29/27/34 38/31/34 40/32/35 30/30/34 
f 41/33/36 42/34/36 38/32/29 37/31/28 
f 43/33/31 41/34/31 37/32/31 39/31/31 
f 44/33/37 43/34/37 39/32/33 40/31/33 
f 42/33/35 44/34/35 40/32/35 38/31/34 
f 34/28/36 33/29/27 42/34/36 41/33/36 
f 35/28/30 34/29/30 41/34/31 43/33/31 
f 36/28/38 35/29/38 43/34/37 44/33/37 
f 33/28/39 36/29/34 44/34/35 42/33/35 
# 14 polygons

