# 3ds Max Wavefront OBJ Exporter v0.97b - (c)2007 guruware
# File Created: 13.10.2014 22:40:13

mtllib madebysign.mtl

#
# object Cylinder001
#

v  -1.4546 0.0000 -0.0726
v  -1.5246 0.0000 -0.0726
v  -1.5041 0.0000 -0.1221
v  -1.4546 0.0000 -0.1426
v  -1.4546 0.0000 -0.0026
v  -1.5041 0.0000 -0.0231
v  -1.3846 0.0000 -0.0726
v  -1.4051 0.0000 -0.0231
v  -1.4051 0.0000 -0.1221
v  -1.5041 4.9907 -0.1221
v  -1.4546 4.9907 -0.1426
v  -1.5246 4.9907 -0.0726
v  -1.5041 4.9907 -0.0231
v  -1.4546 4.9907 -0.0026
v  -1.4051 4.9907 -0.0231
v  -1.3846 4.9907 -0.0726
v  -1.4051 4.9907 -0.1221
v  -1.4546 4.9907 -0.0726
# 18 vertices

vn 0.0000 -1.0000 -0.0000
vn -0.0000 0.0000 -1.0000
vn -0.7071 0.0000 -0.7071
vn -1.0000 0.0000 0.0000
vn -0.7071 0.0000 0.7071
vn 0.0000 0.0000 1.0000
vn 0.7071 0.0000 0.7071
vn 1.0000 0.0000 -0.0000
vn 0.7071 0.0000 -0.7071
vn 0.0000 1.0000 -0.0000
# 10 vertex normals

vt 0.8903 0.2187 0.0000
vt 0.8153 0.2187 1.0000
vt 0.7966 0.2187 1.0000
vt 0.8328 0.2187 0.4142
vt 0.8528 0.2187 1.0000
vt 0.8341 0.2187 1.0000
vt 0.8903 0.2187 1.0000
vt 0.8716 0.2187 1.0000
vt 0.9278 0.2187 1.0000
vt 0.9091 0.2187 1.0000
vt 0.9466 0.2187 1.0000
vt 0.9466 0.3687 1.0000
vt 0.9278 0.3687 1.0000
vt 0.8153 0.3687 1.0000
vt 0.7966 0.3687 1.0000
vt 0.8341 0.3687 1.0000
vt 0.8528 0.3687 1.0000
vt 0.8716 0.3687 1.0000
vt 0.8903 0.3687 1.0000
vt 0.9091 0.3687 1.0000
vt 0.8903 0.3687 0.0000
# 21 texture coords

g Cylinder001
usemtl Material__26
f 1/1/1 2/2/1 3/3/1 4/4/1 
f 1/1/1 5/5/1 6/6/1 2/2/1 
f 1/1/1 7/7/1 8/8/1 5/5/1 
f 1/1/1 4/9/1 9/10/1 7/7/1 
f 4/9/2 3/11/3 10/12/3 11/13/2 
f 3/3/3 2/2/4 12/14/4 10/15/3 
f 2/2/4 6/6/5 13/16/5 12/14/4 
f 6/6/5 5/5/6 14/17/6 13/16/5 
f 5/5/6 8/8/7 15/18/7 14/17/6 
f 8/8/7 7/7/8 16/19/8 15/18/7 
f 7/7/8 9/10/9 17/20/9 16/19/8 
f 9/10/9 4/9/2 11/13/2 17/20/9 
f 18/21/10 17/20/10 11/13/10 10/12/10 
f 18/21/10 10/15/10 12/14/10 13/16/10 
f 18/21/10 13/16/10 14/17/10 15/18/10 
f 18/21/10 15/18/10 16/19/10 17/20/10 
# 16 polygons

#
# object Box001
#

v  1.9559 5.6342 0.0463
v  1.9559 3.3829 0.0463
v  1.8622 3.3029 0.0463
v  -2.1010 3.3829 0.0463
v  -2.0074 3.3029 0.0463
v  -2.1010 5.6342 0.0463
v  -2.0074 5.7141 0.0463
v  1.8622 5.7141 0.0463
v  1.8622 5.7141 0.0988
v  -2.0074 5.7141 0.0988
v  -2.1010 5.6342 0.0988
v  -2.0074 3.3029 0.0988
v  -2.1010 3.3829 0.0988
v  1.8622 3.3029 0.0988
v  1.9559 3.3829 0.0988
v  1.9559 5.6342 0.0988
# 16 vertices

vn -0.0000 0.0000 -1.0000
vn 0.0000 -0.0000 1.0000
vn 0.0000 1.0000 0.0000
vn -1.0000 0.0000 0.0000
vn -0.0000 -1.0000 -0.0000
vn 1.0000 -0.0000 -0.0000
vn -0.7071 0.7071 0.0000
vn 0.7071 0.7071 -0.0000
vn -0.7071 -0.7071 0.0000
vn 0.7071 -0.7071 -0.0000
# 10 vertex normals

vt 0.6070 0.7470 0.0000
vt 0.6070 0.8251 0.0000
vt 0.6043 0.8278 0.0000
vt 0.4870 0.8251 0.0000
vt 0.4898 0.8278 0.0000
vt 0.4870 0.7470 0.0000
vt 0.4898 0.7443 0.0000
vt 0.6043 0.7443 0.0000
vt 0.9793 0.9955 0.0000
vt 0.0136 0.9881 0.0000
vt 0.0037 0.9621 0.0000
vt 0.0197 -0.0000 0.0000
vt 0.0086 0.0302 0.0000
vt 0.9822 0.0010 0.0000
vt 0.9992 0.0303 0.0000
vt 0.9945 0.9721 0.0000
vt 0.5082 0.8680 0.0000
vt 0.3125 0.8680 0.0000
vt 0.3125 0.8653 0.0000
vt 0.5082 0.8653 0.0000
vt 0.4506 0.8980 0.0000
vt 0.3172 0.8980 0.0000
vt 0.3172 0.8954 0.0000
vt 0.4506 0.8954 0.0000
vt 0.5082 0.8780 0.0000
vt 0.3125 0.8780 0.0000
vt 0.3125 0.8753 0.0000
vt 0.5082 0.8753 0.0000
vt 0.4506 0.8880 0.0000
vt 0.3172 0.8880 0.0000
vt 0.3172 0.8854 0.0000
vt 0.4506 0.8854 0.0000
vt 0.4553 0.8980 0.0000
vt 0.4553 0.8954 0.0000
vt 0.3125 0.8854 0.0000
vt 0.3125 0.8880 0.0000
vt 0.3125 0.8980 0.0000
vt 0.3125 0.8954 0.0000
vt 0.4553 0.8880 0.0000
vt 0.4553 0.8854 0.0000
# 40 texture coords

g Box001
usemtl Material__25
f 19/22/11 20/23/11 21/24/11 22/25/11 
f 21/24/11 23/26/11 22/25/11 
f 22/25/11 24/27/11 25/28/11 19/22/11 
f 26/29/11 19/22/11 25/28/11 
f 27/30/12 28/31/12 29/32/12 30/33/12 
f 29/32/12 31/34/12 30/33/12 
f 30/33/12 32/35/12 33/36/12 27/30/12 
f 34/37/12 27/30/12 33/36/12 
f 26/38/13 25/39/13 28/40/13 27/41/13 
f 24/42/14 22/43/14 31/44/14 29/45/14 
f 23/46/15 21/47/15 32/48/15 30/49/15 
f 20/50/16 19/51/16 34/52/16 33/53/16 
f 25/54/17 24/42/17 29/45/17 28/55/17 
f 27/56/18 34/52/18 19/51/18 26/57/18 
f 22/43/19 23/58/19 30/59/19 31/44/19 
f 21/60/20 20/50/20 33/53/20 32/61/20 
# 12 polygons - 4 triangles

#
# object Cylinder002
#

v  1.3752 0.0000 -0.0726
v  1.3052 0.0000 -0.0726
v  1.3257 0.0000 -0.1221
v  1.3752 0.0000 -0.1426
v  1.3752 0.0000 -0.0026
v  1.3257 0.0000 -0.0231
v  1.4452 0.0000 -0.0726
v  1.4246 0.0000 -0.0231
v  1.4246 0.0000 -0.1221
v  1.3257 4.9907 -0.1221
v  1.3752 4.9907 -0.1426
v  1.3052 4.9907 -0.0726
v  1.3257 4.9907 -0.0231
v  1.3752 4.9907 -0.0026
v  1.4246 4.9907 -0.0231
v  1.4452 4.9907 -0.0726
v  1.4246 4.9907 -0.1221
v  1.3752 4.9907 -0.0726
# 18 vertices

vn 0.0000 -1.0000 -0.0000
vn -0.0000 0.0000 -1.0000
vn -0.7071 0.0000 -0.7071
vn -1.0000 0.0000 0.0000
vn -0.7071 0.0000 0.7071
vn 0.0000 0.0000 1.0000
vn 0.7071 0.0000 0.7071
vn 1.0000 0.0000 -0.0000
vn 0.7071 0.0000 -0.7071
vn 0.0000 1.0000 -0.0000
# 10 vertex normals

vt 0.8903 0.2187 0.0000
vt 0.8153 0.2187 1.0000
vt 0.7966 0.2187 1.0000
vt 0.8328 0.2187 0.4142
vt 0.8528 0.2187 1.0000
vt 0.8341 0.2187 1.0000
vt 0.8903 0.2187 1.0000
vt 0.8716 0.2187 1.0000
vt 0.9278 0.2187 1.0000
vt 0.9091 0.2187 1.0000
vt 0.9466 0.2187 1.0000
vt 0.9466 0.3687 1.0000
vt 0.9278 0.3687 1.0000
vt 0.8153 0.3687 1.0000
vt 0.7966 0.3687 1.0000
vt 0.8341 0.3687 1.0000
vt 0.8528 0.3687 1.0000
vt 0.8716 0.3687 1.0000
vt 0.8903 0.3687 1.0000
vt 0.9091 0.3687 1.0000
vt 0.8903 0.3687 0.0000
# 21 texture coords

g Cylinder002
usemtl Material__26
f 35/62/21 36/63/21 37/64/21 38/65/21 
f 35/62/21 39/66/21 40/67/21 36/63/21 
f 35/62/21 41/68/21 42/69/21 39/66/21 
f 35/62/21 38/70/21 43/71/21 41/68/21 
f 38/70/22 37/72/23 44/73/23 45/74/22 
f 37/64/23 36/63/24 46/75/24 44/76/23 
f 36/63/24 40/67/25 47/77/25 46/75/24 
f 40/67/25 39/66/26 48/78/26 47/77/25 
f 39/66/26 42/69/27 49/79/27 48/78/26 
f 42/69/27 41/68/28 50/80/28 49/79/27 
f 41/68/28 43/71/29 51/81/29 50/80/28 
f 43/71/29 38/70/22 45/74/22 51/81/29 
f 52/82/30 51/81/30 45/74/30 44/73/30 
f 52/82/30 44/76/30 46/75/30 47/77/30 
f 52/82/30 47/77/30 48/78/30 49/79/30 
f 52/82/30 49/79/30 50/80/30 51/81/30 
# 16 polygons

